%TF.GenerationSoftware,KiCad,Pcbnew,(5.1.8)-1*%
%TF.CreationDate,2021-02-01T19:36:53+01:00*%
%TF.ProjectId,Composite Video Amplifier,436f6d70-6f73-4697-9465-20566964656f,rev?*%
%TF.SameCoordinates,Original*%
%TF.FileFunction,Copper,L1,Top*%
%TF.FilePolarity,Positive*%
%FSLAX46Y46*%
G04 Gerber Fmt 4.6, Leading zero omitted, Abs format (unit mm)*
G04 Created by KiCad (PCBNEW (5.1.8)-1) date 2021-02-01 19:36:53*
%MOMM*%
%LPD*%
G01*
G04 APERTURE LIST*
%TA.AperFunction,ComponentPad*%
%ADD10C,1.600000*%
%TD*%
%TA.AperFunction,ComponentPad*%
%ADD11O,1.600000X1.600000*%
%TD*%
%TA.AperFunction,ComponentPad*%
%ADD12C,1.440000*%
%TD*%
%TA.AperFunction,ComponentPad*%
%ADD13R,1.700000X1.700000*%
%TD*%
%TA.AperFunction,ComponentPad*%
%ADD14O,1.700000X1.700000*%
%TD*%
%TA.AperFunction,ComponentPad*%
%ADD15C,1.520000*%
%TD*%
%TA.AperFunction,ComponentPad*%
%ADD16R,1.520000X1.520000*%
%TD*%
%TA.AperFunction,ViaPad*%
%ADD17C,0.600000*%
%TD*%
%TA.AperFunction,Conductor*%
%ADD18C,0.250000*%
%TD*%
G04 APERTURE END LIST*
D10*
%TO.P,R3,1*%
%TO.N,GND*%
X150495000Y-135255000D03*
D11*
%TO.P,R3,2*%
%TO.N,Net-(Q1-Pad2)*%
X150495000Y-125095000D03*
%TD*%
D12*
%TO.P,RV1,1*%
%TO.N,Net-(Q1-Pad2)*%
X135255000Y-121285000D03*
%TO.P,RV1,2*%
%TO.N,Net-(C1-Pad1)*%
X137795000Y-121285000D03*
%TO.P,RV1,3*%
X140335000Y-121285000D03*
%TD*%
D10*
%TO.P,C1,1*%
%TO.N,Net-(C1-Pad1)*%
X151765000Y-121920000D03*
%TO.P,C1,2*%
%TO.N,/VID_IN*%
X146765000Y-121920000D03*
%TD*%
D13*
%TO.P,J2,1*%
%TO.N,/VID_OUT*%
X169545000Y-127000000D03*
D14*
%TO.P,J2,2*%
%TO.N,GND*%
X169545000Y-129540000D03*
%TO.P,J2,3*%
X169545000Y-132080000D03*
%TO.P,J2,4*%
%TO.N,/AUD_OUT*%
X169545000Y-134620000D03*
%TD*%
D15*
%TO.P,Q1,2*%
%TO.N,Net-(Q1-Pad2)*%
X158750000Y-121285000D03*
%TO.P,Q1,3*%
%TO.N,Net-(Q1-Pad3)*%
X161290000Y-121285000D03*
D16*
%TO.P,Q1,1*%
%TO.N,Net-(Q1-Pad1)*%
X156210000Y-121285000D03*
%TD*%
D15*
%TO.P,Q2,2*%
%TO.N,Net-(Q1-Pad3)*%
X166370000Y-121285000D03*
%TO.P,Q2,3*%
%TO.N,/VID_OUT*%
X168910000Y-121285000D03*
D16*
%TO.P,Q2,1*%
%TO.N,Net-(Q2-Pad1)*%
X163830000Y-121285000D03*
%TD*%
D10*
%TO.P,R1,1*%
%TO.N,/VID_IN*%
X144145000Y-135255000D03*
D11*
%TO.P,R1,2*%
%TO.N,Net-(C1-Pad1)*%
X144145000Y-125095000D03*
%TD*%
D10*
%TO.P,R2,1*%
%TO.N,VCC*%
X147320000Y-135255000D03*
D11*
%TO.P,R2,2*%
%TO.N,Net-(Q1-Pad2)*%
X147320000Y-125095000D03*
%TD*%
D10*
%TO.P,R4,1*%
%TO.N,VCC*%
X156845000Y-135255000D03*
D11*
%TO.P,R4,2*%
%TO.N,Net-(Q1-Pad3)*%
X156845000Y-125095000D03*
%TD*%
D10*
%TO.P,R5,1*%
%TO.N,GND*%
X153670000Y-135255000D03*
D11*
%TO.P,R5,2*%
%TO.N,Net-(Q1-Pad1)*%
X153670000Y-125095000D03*
%TD*%
D10*
%TO.P,R6,1*%
%TO.N,VCC*%
X160020000Y-135255000D03*
D11*
%TO.P,R6,2*%
%TO.N,Net-(Q2-Pad1)*%
X160020000Y-125095000D03*
%TD*%
D10*
%TO.P,R7,1*%
%TO.N,GND*%
X163195000Y-135255000D03*
D11*
%TO.P,R7,2*%
%TO.N,/VID_OUT*%
X163195000Y-125095000D03*
%TD*%
D10*
%TO.P,R8,1*%
%TO.N,/AUD_IN*%
X140970000Y-135255000D03*
D11*
%TO.P,R8,2*%
%TO.N,/AUD_OUT*%
X140970000Y-125095000D03*
%TD*%
D13*
%TO.P,J1,1*%
%TO.N,VCC*%
X134620000Y-127000000D03*
D14*
%TO.P,J1,2*%
%TO.N,/VID_IN*%
X134620000Y-129540000D03*
%TO.P,J1,3*%
%TO.N,/AUD_IN*%
X134620000Y-132080000D03*
%TO.P,J1,4*%
%TO.N,GND*%
X134620000Y-134620000D03*
%TD*%
D17*
%TO.N,/VID_IN*%
X138430000Y-129540000D03*
%TD*%
D18*
%TO.N,Net-(C1-Pad1)*%
X144145000Y-125095000D02*
X144145000Y-122047000D01*
X144145000Y-122047000D02*
X144145000Y-121920000D01*
X144145000Y-122047000D02*
X144145000Y-121920000D01*
X144145000Y-121920000D02*
X144145000Y-120650000D01*
X151765000Y-120650000D02*
X151765000Y-121920000D01*
X151130000Y-120015000D02*
X151765000Y-120650000D01*
X144780000Y-120015000D02*
X151130000Y-120015000D01*
X144145000Y-120650000D02*
X144780000Y-120015000D01*
X140335000Y-121285000D02*
X143383000Y-121285000D01*
X143383000Y-121285000D02*
X144145000Y-122047000D01*
X137795000Y-121285000D02*
X140335000Y-121285000D01*
%TO.N,/VID_IN*%
X138430000Y-129540000D02*
X144145000Y-135255000D01*
X134620000Y-129540000D02*
X138430000Y-129540000D01*
%TO.N,/AUD_IN*%
X134620000Y-132080000D02*
X137795000Y-132080000D01*
X137795000Y-132080000D02*
X140970000Y-135255000D01*
%TO.N,VCC*%
X134620000Y-127000000D02*
X139065000Y-127000000D01*
X139065000Y-127000000D02*
X145415000Y-133350000D01*
X154940000Y-133350000D02*
X158115000Y-133350000D01*
X158115000Y-133350000D02*
X160020000Y-135255000D01*
X145415000Y-133350000D02*
X154940000Y-133350000D01*
X154940000Y-133350000D02*
X156845000Y-135255000D01*
X145415000Y-133350000D02*
X147320000Y-135255000D01*
%TO.N,/VID_OUT*%
X163195000Y-125095000D02*
X169545000Y-125095000D01*
X169545000Y-127000000D02*
X169545000Y-125095000D01*
X168910000Y-124460000D02*
X169545000Y-125095000D01*
X168910000Y-121285000D02*
X168910000Y-124460000D01*
%TO.N,/AUD_OUT*%
X147955000Y-132080000D02*
X140970000Y-125095000D01*
X164465000Y-132080000D02*
X147955000Y-132080000D01*
X167005000Y-134620000D02*
X164465000Y-132080000D01*
X167005000Y-134620000D02*
X169545000Y-134620000D01*
%TO.N,Net-(Q1-Pad2)*%
X150495000Y-125095000D02*
X151130000Y-125095000D01*
X151130000Y-125095000D02*
X154305000Y-121920000D01*
X154305000Y-120015000D02*
X153670000Y-119380000D01*
X154305000Y-121920000D02*
X154305000Y-120015000D01*
X147320000Y-125095000D02*
X150495000Y-125095000D01*
X135255000Y-121285000D02*
X135255000Y-120650000D01*
X135255000Y-120650000D02*
X136525000Y-119380000D01*
X136525000Y-119380000D02*
X153670000Y-119380000D01*
X153670000Y-119380000D02*
X154305000Y-119380000D01*
X158750000Y-121285000D02*
X158750000Y-120015000D01*
X158115000Y-119380000D02*
X155575000Y-119380000D01*
X155575000Y-119380000D02*
X154305000Y-119380000D01*
X158750000Y-120015000D02*
X158115000Y-119380000D01*
%TO.N,Net-(Q1-Pad3)*%
X156845000Y-125095000D02*
X157480000Y-125095000D01*
X157480000Y-125095000D02*
X161290000Y-121285000D01*
X161290000Y-121285000D02*
X161290000Y-120650000D01*
X161290000Y-120650000D02*
X161925000Y-120015000D01*
X165735000Y-120015000D02*
X166370000Y-120650000D01*
X161925000Y-120015000D02*
X165735000Y-120015000D01*
X166370000Y-120650000D02*
X166370000Y-121285000D01*
%TO.N,Net-(Q1-Pad1)*%
X156210000Y-121285000D02*
X156210000Y-122555000D01*
X156210000Y-122555000D02*
X153670000Y-125095000D01*
%TO.N,Net-(Q2-Pad1)*%
X160020000Y-125095000D02*
X163830000Y-121285000D01*
%TD*%
M02*
