M48
;DRILL file {KiCad 4.0.7} date 12/13/18 17:40:29
;FORMAT={2:4/ absolute / inch / suppress leading zeros}
FMAT,2
INCH,TZ
T1C0.016
T2C0.031
T3C0.039
%
G90
G05
M72
T1
X54500Y-51000
T2
X53250Y-47750
X54250Y-47750
X55250Y-47750
X55500Y-49250
X55500Y-53250
X56750Y-49250
X56750Y-53250
X57781Y-48000
X58000Y-49250
X58000Y-53250
X59250Y-49250
X59250Y-53250
X59750Y-48000
X60500Y-49250
X60500Y-53250
X61500Y-47750
X61750Y-49250
X61750Y-53250
X62500Y-47750
X63000Y-49250
X63000Y-53250
X63500Y-47750
X64250Y-49250
X64250Y-53250
X64500Y-47750
X65500Y-47750
X66500Y-47750
T3
X53000Y-50000
X53000Y-51000
X53000Y-52000
X53000Y-53000
X66500Y-50000
X66500Y-51000
X66500Y-52000
X66500Y-53000
T0
M30
