G04 #@! TF.FileFunction,Legend,Top*
%FSLAX46Y46*%
G04 Gerber Fmt 4.6, Leading zero omitted, Abs format (unit mm)*
G04 Created by KiCad (PCBNEW 4.0.7) date 12/13/18 17:40:25*
%MOMM*%
%LPD*%
G01*
G04 APERTURE LIST*
%ADD10C,0.100000*%
%ADD11C,0.300000*%
%ADD12C,0.120000*%
%ADD13C,0.150000*%
G04 APERTURE END LIST*
D10*
X167910000Y-124076667D02*
X168100477Y-124076667D01*
X168195715Y-124110000D01*
X168290953Y-124176667D01*
X168338572Y-124310000D01*
X168338572Y-124543333D01*
X168290953Y-124676667D01*
X168195715Y-124743333D01*
X168100477Y-124776667D01*
X167910000Y-124776667D01*
X167814762Y-124743333D01*
X167719524Y-124676667D01*
X167671905Y-124543333D01*
X167671905Y-124310000D01*
X167719524Y-124176667D01*
X167814762Y-124110000D01*
X167910000Y-124076667D01*
X168767143Y-124076667D02*
X168767143Y-124643333D01*
X168814762Y-124710000D01*
X168862381Y-124743333D01*
X168957619Y-124776667D01*
X169148096Y-124776667D01*
X169243334Y-124743333D01*
X169290953Y-124710000D01*
X169338572Y-124643333D01*
X169338572Y-124076667D01*
X169671905Y-124076667D02*
X170243334Y-124076667D01*
X169957619Y-124776667D02*
X169957619Y-124076667D01*
D11*
X165377857Y-134870000D02*
X166092143Y-134870000D01*
X165235000Y-135298571D02*
X165735000Y-133798571D01*
X166235000Y-135298571D01*
X166127857Y-131330000D02*
X165985000Y-131258571D01*
X165770714Y-131258571D01*
X165556429Y-131330000D01*
X165413571Y-131472857D01*
X165342143Y-131615714D01*
X165270714Y-131901429D01*
X165270714Y-132115714D01*
X165342143Y-132401429D01*
X165413571Y-132544286D01*
X165556429Y-132687143D01*
X165770714Y-132758571D01*
X165913571Y-132758571D01*
X166127857Y-132687143D01*
X166199286Y-132615714D01*
X166199286Y-132115714D01*
X165913571Y-132115714D01*
X166127857Y-128790000D02*
X165985000Y-128718571D01*
X165770714Y-128718571D01*
X165556429Y-128790000D01*
X165413571Y-128932857D01*
X165342143Y-129075714D01*
X165270714Y-129361429D01*
X165270714Y-129575714D01*
X165342143Y-129861429D01*
X165413571Y-130004286D01*
X165556429Y-130147143D01*
X165770714Y-130218571D01*
X165913571Y-130218571D01*
X166127857Y-130147143D01*
X166199286Y-130075714D01*
X166199286Y-129575714D01*
X165913571Y-129575714D01*
X165235000Y-126178571D02*
X165735000Y-127678571D01*
X166235000Y-126178571D01*
X138187857Y-133870000D02*
X138045000Y-133798571D01*
X137830714Y-133798571D01*
X137616429Y-133870000D01*
X137473571Y-134012857D01*
X137402143Y-134155714D01*
X137330714Y-134441429D01*
X137330714Y-134655714D01*
X137402143Y-134941429D01*
X137473571Y-135084286D01*
X137616429Y-135227143D01*
X137830714Y-135298571D01*
X137973571Y-135298571D01*
X138187857Y-135227143D01*
X138259286Y-135155714D01*
X138259286Y-134655714D01*
X137973571Y-134655714D01*
X137437857Y-132330000D02*
X138152143Y-132330000D01*
X137295000Y-132758571D02*
X137795000Y-131258571D01*
X138295000Y-132758571D01*
X137295000Y-128718571D02*
X137795000Y-130218571D01*
X138295000Y-128718571D01*
X137223572Y-127107143D02*
X138366429Y-127107143D01*
X137795000Y-127678571D02*
X137795000Y-126535714D01*
D12*
X149185000Y-133385000D02*
X151805000Y-133385000D01*
X151805000Y-133385000D02*
X151805000Y-126965000D01*
X151805000Y-126965000D02*
X149185000Y-126965000D01*
X149185000Y-126965000D02*
X149185000Y-133385000D01*
X150495000Y-134275000D02*
X150495000Y-133385000D01*
X150495000Y-126075000D02*
X150495000Y-126965000D01*
X134340309Y-121289296D02*
G75*
G02X134300000Y-118980000I-40309J1154296D01*
G01*
X134279879Y-118980948D02*
G75*
G02X135429000Y-120375000I20121J-1154052D01*
G01*
X142620000Y-123755000D02*
X132970000Y-123755000D01*
X142620000Y-118804000D02*
X132970000Y-118804000D01*
X142620000Y-123755000D02*
X142620000Y-118804000D01*
X132970000Y-123755000D02*
X132970000Y-118804000D01*
X133424000Y-120869000D02*
X135035000Y-119259000D01*
X133564000Y-121010000D02*
X135176000Y-119400000D01*
X151675000Y-123230000D02*
X146855000Y-123230000D01*
X151675000Y-120610000D02*
X146855000Y-120610000D01*
X151675000Y-123230000D02*
X151675000Y-122916000D01*
X151675000Y-120924000D02*
X151675000Y-120610000D01*
X146855000Y-123230000D02*
X146855000Y-122916000D01*
X146855000Y-120924000D02*
X146855000Y-120610000D01*
X167580000Y-135950000D02*
X170240000Y-135950000D01*
X167580000Y-128270000D02*
X167580000Y-135950000D01*
X170240000Y-128270000D02*
X170240000Y-135950000D01*
X167580000Y-128270000D02*
X170240000Y-128270000D01*
X167580000Y-127000000D02*
X167580000Y-125670000D01*
X167580000Y-125670000D02*
X168910000Y-125670000D01*
X156950000Y-123135000D02*
X160550000Y-123135000D01*
X156425816Y-122407795D02*
G75*
G03X156950000Y-123135000I2324184J1122795D01*
G01*
X156393600Y-120186193D02*
G75*
G02X158750000Y-118685000I2356400J-1098807D01*
G01*
X161106400Y-120186193D02*
G75*
G03X158750000Y-118685000I-2356400J-1098807D01*
G01*
X161074184Y-122407795D02*
G75*
G02X160550000Y-123135000I-2324184J1122795D01*
G01*
X164570000Y-123135000D02*
X168170000Y-123135000D01*
X164045816Y-122407795D02*
G75*
G03X164570000Y-123135000I2324184J1122795D01*
G01*
X164013600Y-120186193D02*
G75*
G02X166370000Y-118685000I2356400J-1098807D01*
G01*
X168726400Y-120186193D02*
G75*
G03X166370000Y-118685000I-2356400J-1098807D01*
G01*
X168694184Y-122407795D02*
G75*
G02X168170000Y-123135000I-2324184J1122795D01*
G01*
X142835000Y-133385000D02*
X145455000Y-133385000D01*
X145455000Y-133385000D02*
X145455000Y-126965000D01*
X145455000Y-126965000D02*
X142835000Y-126965000D01*
X142835000Y-126965000D02*
X142835000Y-133385000D01*
X144145000Y-134275000D02*
X144145000Y-133385000D01*
X144145000Y-126075000D02*
X144145000Y-126965000D01*
X146010000Y-133385000D02*
X148630000Y-133385000D01*
X148630000Y-133385000D02*
X148630000Y-126965000D01*
X148630000Y-126965000D02*
X146010000Y-126965000D01*
X146010000Y-126965000D02*
X146010000Y-133385000D01*
X147320000Y-134275000D02*
X147320000Y-133385000D01*
X147320000Y-126075000D02*
X147320000Y-126965000D01*
X155535000Y-133385000D02*
X158155000Y-133385000D01*
X158155000Y-133385000D02*
X158155000Y-126965000D01*
X158155000Y-126965000D02*
X155535000Y-126965000D01*
X155535000Y-126965000D02*
X155535000Y-133385000D01*
X156845000Y-134275000D02*
X156845000Y-133385000D01*
X156845000Y-126075000D02*
X156845000Y-126965000D01*
X152360000Y-133385000D02*
X154980000Y-133385000D01*
X154980000Y-133385000D02*
X154980000Y-126965000D01*
X154980000Y-126965000D02*
X152360000Y-126965000D01*
X152360000Y-126965000D02*
X152360000Y-133385000D01*
X153670000Y-134275000D02*
X153670000Y-133385000D01*
X153670000Y-126075000D02*
X153670000Y-126965000D01*
X158710000Y-133385000D02*
X161330000Y-133385000D01*
X161330000Y-133385000D02*
X161330000Y-126965000D01*
X161330000Y-126965000D02*
X158710000Y-126965000D01*
X158710000Y-126965000D02*
X158710000Y-133385000D01*
X160020000Y-134275000D02*
X160020000Y-133385000D01*
X160020000Y-126075000D02*
X160020000Y-126965000D01*
X161885000Y-133385000D02*
X164505000Y-133385000D01*
X164505000Y-133385000D02*
X164505000Y-126965000D01*
X164505000Y-126965000D02*
X161885000Y-126965000D01*
X161885000Y-126965000D02*
X161885000Y-133385000D01*
X163195000Y-134275000D02*
X163195000Y-133385000D01*
X163195000Y-126075000D02*
X163195000Y-126965000D01*
X139660000Y-133385000D02*
X142280000Y-133385000D01*
X142280000Y-133385000D02*
X142280000Y-126965000D01*
X142280000Y-126965000D02*
X139660000Y-126965000D01*
X139660000Y-126965000D02*
X139660000Y-133385000D01*
X140970000Y-134275000D02*
X140970000Y-133385000D01*
X140970000Y-126075000D02*
X140970000Y-126965000D01*
X133290000Y-135950000D02*
X135950000Y-135950000D01*
X133290000Y-128270000D02*
X133290000Y-135950000D01*
X135950000Y-128270000D02*
X135950000Y-135950000D01*
X133290000Y-128270000D02*
X135950000Y-128270000D01*
X133290000Y-127000000D02*
X133290000Y-125670000D01*
X133290000Y-125670000D02*
X134620000Y-125670000D01*
D13*
X150328334Y-128722381D02*
X149995000Y-128246190D01*
X149756905Y-128722381D02*
X149756905Y-127722381D01*
X150137858Y-127722381D01*
X150233096Y-127770000D01*
X150280715Y-127817619D01*
X150328334Y-127912857D01*
X150328334Y-128055714D01*
X150280715Y-128150952D01*
X150233096Y-128198571D01*
X150137858Y-128246190D01*
X149756905Y-128246190D01*
X150661667Y-127722381D02*
X151280715Y-127722381D01*
X150947381Y-128103333D01*
X151090239Y-128103333D01*
X151185477Y-128150952D01*
X151233096Y-128198571D01*
X151280715Y-128293810D01*
X151280715Y-128531905D01*
X151233096Y-128627143D01*
X151185477Y-128674762D01*
X151090239Y-128722381D01*
X150804524Y-128722381D01*
X150709286Y-128674762D01*
X150661667Y-128627143D01*
X137318810Y-119741905D02*
X137052143Y-119360952D01*
X136861667Y-119741905D02*
X136861667Y-118941905D01*
X137166429Y-118941905D01*
X137242620Y-118980000D01*
X137280715Y-119018095D01*
X137318810Y-119094286D01*
X137318810Y-119208571D01*
X137280715Y-119284762D01*
X137242620Y-119322857D01*
X137166429Y-119360952D01*
X136861667Y-119360952D01*
X137547381Y-118941905D02*
X137814048Y-119741905D01*
X138080715Y-118941905D01*
X138766429Y-119741905D02*
X138309286Y-119741905D01*
X138537857Y-119741905D02*
X138537857Y-118941905D01*
X138461667Y-119056190D01*
X138385476Y-119132381D01*
X138309286Y-119170476D01*
X137661667Y-122751905D02*
X137280714Y-122751905D01*
X137242619Y-123132857D01*
X137280714Y-123094762D01*
X137356905Y-123056667D01*
X137547381Y-123056667D01*
X137623571Y-123094762D01*
X137661667Y-123132857D01*
X137699762Y-123209048D01*
X137699762Y-123399524D01*
X137661667Y-123475714D01*
X137623571Y-123513810D01*
X137547381Y-123551905D01*
X137356905Y-123551905D01*
X137280714Y-123513810D01*
X137242619Y-123475714D01*
X138042619Y-123551905D02*
X138042619Y-122751905D01*
X138118810Y-123247143D02*
X138347381Y-123551905D01*
X138347381Y-123018571D02*
X138042619Y-123323333D01*
X149058334Y-117832143D02*
X149010715Y-117879762D01*
X148867858Y-117927381D01*
X148772620Y-117927381D01*
X148629762Y-117879762D01*
X148534524Y-117784524D01*
X148486905Y-117689286D01*
X148439286Y-117498810D01*
X148439286Y-117355952D01*
X148486905Y-117165476D01*
X148534524Y-117070238D01*
X148629762Y-116975000D01*
X148772620Y-116927381D01*
X148867858Y-116927381D01*
X149010715Y-116975000D01*
X149058334Y-117022619D01*
X150010715Y-117927381D02*
X149439286Y-117927381D01*
X149725000Y-117927381D02*
X149725000Y-116927381D01*
X149629762Y-117070238D01*
X149534524Y-117165476D01*
X149439286Y-117213095D01*
X148291666Y-121748571D02*
X148291666Y-122281905D01*
X148101190Y-121443810D02*
X147910714Y-122015238D01*
X148405952Y-122015238D01*
X148634524Y-121481905D02*
X149167857Y-121481905D01*
X148825000Y-122281905D01*
X149472619Y-121748571D02*
X149472619Y-122548571D01*
X149472619Y-121786667D02*
X149548810Y-121748571D01*
X149701191Y-121748571D01*
X149777381Y-121786667D01*
X149815476Y-121824762D01*
X149853572Y-121900952D01*
X149853572Y-122129524D01*
X149815476Y-122205714D01*
X149777381Y-122243810D01*
X149701191Y-122281905D01*
X149548810Y-122281905D01*
X149472619Y-122243810D01*
X150463096Y-121862857D02*
X150196429Y-121862857D01*
X150196429Y-122281905D02*
X150196429Y-121481905D01*
X150577382Y-121481905D01*
X170902381Y-127333333D02*
X171616667Y-127333333D01*
X171759524Y-127380953D01*
X171854762Y-127476191D01*
X171902381Y-127619048D01*
X171902381Y-127714286D01*
X170997619Y-126904762D02*
X170950000Y-126857143D01*
X170902381Y-126761905D01*
X170902381Y-126523809D01*
X170950000Y-126428571D01*
X170997619Y-126380952D01*
X171092857Y-126333333D01*
X171188095Y-126333333D01*
X171330952Y-126380952D01*
X171902381Y-126952381D01*
X171902381Y-126333333D01*
X158654762Y-118272619D02*
X158559524Y-118225000D01*
X158464286Y-118129762D01*
X158321429Y-117986905D01*
X158226190Y-117939286D01*
X158130952Y-117939286D01*
X158178571Y-118177381D02*
X158083333Y-118129762D01*
X157988095Y-118034524D01*
X157940476Y-117844048D01*
X157940476Y-117510714D01*
X157988095Y-117320238D01*
X158083333Y-117225000D01*
X158178571Y-117177381D01*
X158369048Y-117177381D01*
X158464286Y-117225000D01*
X158559524Y-117320238D01*
X158607143Y-117510714D01*
X158607143Y-117844048D01*
X158559524Y-118034524D01*
X158464286Y-118129762D01*
X158369048Y-118177381D01*
X158178571Y-118177381D01*
X159559524Y-118177381D02*
X158988095Y-118177381D01*
X159273809Y-118177381D02*
X159273809Y-117177381D01*
X159178571Y-117320238D01*
X159083333Y-117415476D01*
X158988095Y-117463095D01*
X166274762Y-118272619D02*
X166179524Y-118225000D01*
X166084286Y-118129762D01*
X165941429Y-117986905D01*
X165846190Y-117939286D01*
X165750952Y-117939286D01*
X165798571Y-118177381D02*
X165703333Y-118129762D01*
X165608095Y-118034524D01*
X165560476Y-117844048D01*
X165560476Y-117510714D01*
X165608095Y-117320238D01*
X165703333Y-117225000D01*
X165798571Y-117177381D01*
X165989048Y-117177381D01*
X166084286Y-117225000D01*
X166179524Y-117320238D01*
X166227143Y-117510714D01*
X166227143Y-117844048D01*
X166179524Y-118034524D01*
X166084286Y-118129762D01*
X165989048Y-118177381D01*
X165798571Y-118177381D01*
X166608095Y-117272619D02*
X166655714Y-117225000D01*
X166750952Y-117177381D01*
X166989048Y-117177381D01*
X167084286Y-117225000D01*
X167131905Y-117272619D01*
X167179524Y-117367857D01*
X167179524Y-117463095D01*
X167131905Y-117605952D01*
X166560476Y-118177381D01*
X167179524Y-118177381D01*
X143978334Y-128722381D02*
X143645000Y-128246190D01*
X143406905Y-128722381D02*
X143406905Y-127722381D01*
X143787858Y-127722381D01*
X143883096Y-127770000D01*
X143930715Y-127817619D01*
X143978334Y-127912857D01*
X143978334Y-128055714D01*
X143930715Y-128150952D01*
X143883096Y-128198571D01*
X143787858Y-128246190D01*
X143406905Y-128246190D01*
X144930715Y-128722381D02*
X144359286Y-128722381D01*
X144645000Y-128722381D02*
X144645000Y-127722381D01*
X144549762Y-127865238D01*
X144454524Y-127960476D01*
X144359286Y-128008095D01*
X147153334Y-128722381D02*
X146820000Y-128246190D01*
X146581905Y-128722381D02*
X146581905Y-127722381D01*
X146962858Y-127722381D01*
X147058096Y-127770000D01*
X147105715Y-127817619D01*
X147153334Y-127912857D01*
X147153334Y-128055714D01*
X147105715Y-128150952D01*
X147058096Y-128198571D01*
X146962858Y-128246190D01*
X146581905Y-128246190D01*
X147534286Y-127817619D02*
X147581905Y-127770000D01*
X147677143Y-127722381D01*
X147915239Y-127722381D01*
X148010477Y-127770000D01*
X148058096Y-127817619D01*
X148105715Y-127912857D01*
X148105715Y-128008095D01*
X148058096Y-128150952D01*
X147486667Y-128722381D01*
X148105715Y-128722381D01*
X156678334Y-128722381D02*
X156345000Y-128246190D01*
X156106905Y-128722381D02*
X156106905Y-127722381D01*
X156487858Y-127722381D01*
X156583096Y-127770000D01*
X156630715Y-127817619D01*
X156678334Y-127912857D01*
X156678334Y-128055714D01*
X156630715Y-128150952D01*
X156583096Y-128198571D01*
X156487858Y-128246190D01*
X156106905Y-128246190D01*
X157535477Y-128055714D02*
X157535477Y-128722381D01*
X157297381Y-127674762D02*
X157059286Y-128389048D01*
X157678334Y-128389048D01*
X153503334Y-128722381D02*
X153170000Y-128246190D01*
X152931905Y-128722381D02*
X152931905Y-127722381D01*
X153312858Y-127722381D01*
X153408096Y-127770000D01*
X153455715Y-127817619D01*
X153503334Y-127912857D01*
X153503334Y-128055714D01*
X153455715Y-128150952D01*
X153408096Y-128198571D01*
X153312858Y-128246190D01*
X152931905Y-128246190D01*
X154408096Y-127722381D02*
X153931905Y-127722381D01*
X153884286Y-128198571D01*
X153931905Y-128150952D01*
X154027143Y-128103333D01*
X154265239Y-128103333D01*
X154360477Y-128150952D01*
X154408096Y-128198571D01*
X154455715Y-128293810D01*
X154455715Y-128531905D01*
X154408096Y-128627143D01*
X154360477Y-128674762D01*
X154265239Y-128722381D01*
X154027143Y-128722381D01*
X153931905Y-128674762D01*
X153884286Y-128627143D01*
X159853334Y-128722381D02*
X159520000Y-128246190D01*
X159281905Y-128722381D02*
X159281905Y-127722381D01*
X159662858Y-127722381D01*
X159758096Y-127770000D01*
X159805715Y-127817619D01*
X159853334Y-127912857D01*
X159853334Y-128055714D01*
X159805715Y-128150952D01*
X159758096Y-128198571D01*
X159662858Y-128246190D01*
X159281905Y-128246190D01*
X160710477Y-127722381D02*
X160520000Y-127722381D01*
X160424762Y-127770000D01*
X160377143Y-127817619D01*
X160281905Y-127960476D01*
X160234286Y-128150952D01*
X160234286Y-128531905D01*
X160281905Y-128627143D01*
X160329524Y-128674762D01*
X160424762Y-128722381D01*
X160615239Y-128722381D01*
X160710477Y-128674762D01*
X160758096Y-128627143D01*
X160805715Y-128531905D01*
X160805715Y-128293810D01*
X160758096Y-128198571D01*
X160710477Y-128150952D01*
X160615239Y-128103333D01*
X160424762Y-128103333D01*
X160329524Y-128150952D01*
X160281905Y-128198571D01*
X160234286Y-128293810D01*
X163028334Y-128722381D02*
X162695000Y-128246190D01*
X162456905Y-128722381D02*
X162456905Y-127722381D01*
X162837858Y-127722381D01*
X162933096Y-127770000D01*
X162980715Y-127817619D01*
X163028334Y-127912857D01*
X163028334Y-128055714D01*
X162980715Y-128150952D01*
X162933096Y-128198571D01*
X162837858Y-128246190D01*
X162456905Y-128246190D01*
X163361667Y-127722381D02*
X164028334Y-127722381D01*
X163599762Y-128722381D01*
X140803334Y-128722381D02*
X140470000Y-128246190D01*
X140231905Y-128722381D02*
X140231905Y-127722381D01*
X140612858Y-127722381D01*
X140708096Y-127770000D01*
X140755715Y-127817619D01*
X140803334Y-127912857D01*
X140803334Y-128055714D01*
X140755715Y-128150952D01*
X140708096Y-128198571D01*
X140612858Y-128246190D01*
X140231905Y-128246190D01*
X141374762Y-128150952D02*
X141279524Y-128103333D01*
X141231905Y-128055714D01*
X141184286Y-127960476D01*
X141184286Y-127912857D01*
X141231905Y-127817619D01*
X141279524Y-127770000D01*
X141374762Y-127722381D01*
X141565239Y-127722381D01*
X141660477Y-127770000D01*
X141708096Y-127817619D01*
X141755715Y-127912857D01*
X141755715Y-127960476D01*
X141708096Y-128055714D01*
X141660477Y-128103333D01*
X141565239Y-128150952D01*
X141374762Y-128150952D01*
X141279524Y-128198571D01*
X141231905Y-128246190D01*
X141184286Y-128341429D01*
X141184286Y-128531905D01*
X141231905Y-128627143D01*
X141279524Y-128674762D01*
X141374762Y-128722381D01*
X141565239Y-128722381D01*
X141660477Y-128674762D01*
X141708096Y-128627143D01*
X141755715Y-128531905D01*
X141755715Y-128341429D01*
X141708096Y-128246190D01*
X141660477Y-128198571D01*
X141565239Y-128150952D01*
X130897381Y-127333333D02*
X131611667Y-127333333D01*
X131754524Y-127380953D01*
X131849762Y-127476191D01*
X131897381Y-127619048D01*
X131897381Y-127714286D01*
X131897381Y-126333333D02*
X131897381Y-126904762D01*
X131897381Y-126619048D02*
X130897381Y-126619048D01*
X131040238Y-126714286D01*
X131135476Y-126809524D01*
X131183095Y-126904762D01*
M02*
