M48
INCH,TZ
T1C0.0157
T2C0.0315
T3C0.0394
%
G90
G05
T1
X54500Y-51000
T2
X55500Y-49250
X55500Y-53250
X63000Y-49250
X63000Y-53250
X58000Y-49250
X58000Y-53250
X57781Y-48000
X59750Y-48000
X64250Y-49250
X64250Y-53250
X56750Y-49250
X56750Y-53250
X53250Y-47750
X54250Y-47750
X55250Y-47750
X60500Y-49250
X60500Y-53250
X59250Y-49250
X59250Y-53250
X61750Y-49250
X61750Y-53250
X64500Y-47750
X65500Y-47750
X66500Y-47750
X61500Y-47750
X62500Y-47750
X63500Y-47750
T3
X53000Y-50000
X53000Y-51000
X53000Y-52000
X53000Y-53000
X66750Y-50000
X66750Y-51000
X66750Y-52000
X66750Y-53000
T0
M30
